<?xml version="1.0" encoding="UTF-8" standalone="no"?>
<!-- Created with Inkscape (http://www.inkscape.org/) -->

<svg
   width="297mm"
   height="210mm"
   viewBox="0 0 297 210"
   version="1.1"
   id="svg5"
   inkscape:version="1.1 (c68e22c387, 2021-05-23)"
   sodipodi:docname="workflow.svg"
   inkscape:export-filename="C:\work\qgep\docs\docs\en\qgep_swmm\images\workflow.png"
   inkscape:export-xdpi="100"
   inkscape:export-ydpi="100"
   xmlns:inkscape="http://www.inkscape.org/namespaces/inkscape"
   xmlns:sodipodi="http://sodipodi.sourceforge.net/DTD/sodipodi-0.dtd"
   xmlns="http://www.w3.org/2000/svg"
   xmlns:svg="http://www.w3.org/2000/svg">
  <sodipodi:namedview
     id="namedview7"
     pagecolor="#ffffff"
     bordercolor="#666666"
     borderopacity="1.0"
     inkscape:pageshadow="2"
     inkscape:pageopacity="0.0"
     inkscape:pagecheckerboard="0"
     inkscape:document-units="mm"
     showgrid="false"
     inkscape:snap-bbox="true"
     inkscape:zoom="0.80087682"
     inkscape:cx="639.92362"
     inkscape:cy="485.09332"
     inkscape:window-width="1920"
     inkscape:window-height="1145"
     inkscape:window-x="-8"
     inkscape:window-y="-8"
     inkscape:window-maximized="1"
     inkscape:current-layer="layer1" />
  <defs
     id="defs2">
    <marker
       style="overflow:visible;"
       id="Arrow1Mend"
       refX="0.0"
       refY="0.0"
       orient="auto"
       inkscape:stockid="Arrow1Mend"
       inkscape:isstock="true">
      <path
         transform="scale(0.4) rotate(180) translate(10,0)"
         style="fill-rule:evenodd;fill:context-stroke;stroke:context-stroke;stroke-width:1.0pt;"
         d="M 0.0,0.0 L 5.0,-5.0 L -12.5,0.0 L 5.0,5.0 L 0.0,0.0 z "
         id="path197090" />
    </marker>
    <marker
       style="overflow:visible;"
       id="Arrow1Lend"
       refX="0.0"
       refY="0.0"
       orient="auto"
       inkscape:stockid="Arrow1Lend"
       inkscape:isstock="true">
      <path
         transform="scale(0.8) rotate(180) translate(12.5,0)"
         style="fill-rule:evenodd;fill:context-stroke;stroke:context-stroke;stroke-width:1.0pt;"
         d="M 0.0,0.0 L 5.0,-5.0 L -12.5,0.0 L 5.0,5.0 L 0.0,0.0 z "
         id="path197084" />
    </marker>
    <marker
       style="overflow:visible"
       id="Arrow1Lstart"
       refX="0.0"
       refY="0.0"
       orient="auto"
       inkscape:stockid="Arrow1Lstart"
       inkscape:isstock="true">
      <path
         transform="scale(0.8) translate(12.5,0)"
         style="fill-rule:evenodd;fill:context-stroke;stroke:context-stroke;stroke-width:1.0pt"
         d="M 0.0,0.0 L 5.0,-5.0 L -12.5,0.0 L 5.0,5.0 L 0.0,0.0 z "
         id="path197081" />
    </marker>
    <marker
       style="overflow:visible"
       id="Arrow1Mend-0"
       refX="0"
       refY="0"
       orient="auto"
       inkscape:stockid="Arrow1Mend"
       inkscape:isstock="true">
      <path
         transform="matrix(-0.4,0,0,-0.4,-4,0)"
         style="fill:context-stroke;fill-rule:evenodd;stroke:context-stroke;stroke-width:1pt"
         d="M 0,0 5,-5 -12.5,0 5,5 Z"
         id="path197090-4" />
    </marker>
    <marker
       style="overflow:visible"
       id="Arrow1Mend-2"
       refX="0"
       refY="0"
       orient="auto"
       inkscape:stockid="Arrow1Mend"
       inkscape:isstock="true">
      <path
         transform="matrix(-0.4,0,0,-0.4,-4,0)"
         style="fill:context-stroke;fill-rule:evenodd;stroke:context-stroke;stroke-width:1pt"
         d="M 0,0 5,-5 -12.5,0 5,5 Z"
         id="path197090-9" />
    </marker>
    <marker
       style="overflow:visible"
       id="Arrow1Mend-0-6"
       refX="0"
       refY="0"
       orient="auto"
       inkscape:stockid="Arrow1Mend"
       inkscape:isstock="true">
      <path
         transform="matrix(-0.4,0,0,-0.4,-4,0)"
         style="fill:context-stroke;fill-rule:evenodd;stroke:context-stroke;stroke-width:1pt"
         d="M 0,0 5,-5 -12.5,0 5,5 Z"
         id="path197090-4-8" />
    </marker>
  </defs>
  <g
     inkscape:label="Calque 1"
     inkscape:groupmode="layer"
     id="layer1">
    <rect
       style="fill:#ebe0eb;stroke:#ebe0eb;stroke-width:0.643072;stroke-linecap:round;stroke-linejoin:round;stroke-miterlimit:4;stroke-dasharray:none;fill-opacity:1;stroke-opacity:1"
       id="rect14177-2-1-3-2"
       width="238.42389"
       height="24.356928"
       x="30.77092"
       y="157.47061" />
    <rect
       style="fill:#ebe0eb;stroke:#ebe0eb;stroke-width:0.642632;stroke-linecap:round;stroke-linejoin:round;stroke-miterlimit:4;stroke-dasharray:none;fill-opacity:1;stroke-opacity:1"
       id="rect14177-2-1"
       width="238.09396"
       height="24.357368"
       x="30.770699"
       y="108.8794" />
    <rect
       style="fill:#ebe0eb;stroke:#ebe0eb;stroke-width:0.643533;stroke-linecap:round;stroke-linejoin:round;stroke-miterlimit:4;stroke-dasharray:none;fill-opacity:1;stroke-opacity:1"
       id="rect14177"
       width="238.77084"
       height="24.356464"
       x="30.771139"
       y="60.289017" />
    <text
       xml:space="preserve"
       style="font-style:normal;font-weight:bold;font-size:3.88055993px;line-height:1.25;font-family:Lato;letter-spacing:0px;word-spacing:0px;fill:#000000;fill-opacity:1;stroke:none;stroke-width:0.264583;-inkscape-font-specification:'Lato, Bold';font-stretch:normal;font-variant:normal;font-variant-ligatures:normal;font-variant-caps:normal;font-variant-numeric:normal;font-variant-east-asian:normal"
       x="34.782913"
       y="67.973892"
       id="text1446"><tspan
         sodipodi:role="line"
         id="tspan1444"
         style="stroke-width:0.264583;-inkscape-font-specification:'Lato, Bold';font-family:Lato;font-weight:bold;font-style:normal;font-stretch:normal;font-variant:normal;font-size:3.88055993px;font-variant-ligatures:normal;font-variant-caps:normal;font-variant-numeric:normal;font-variant-east-asian:normal"
         x="34.782913"
         y="67.973892">Data preparation</tspan></text>
    <text
       xml:space="preserve"
       style="font-style:normal;font-weight:bold;font-size:3.88055993px;line-height:1.25;font-family:Lato;letter-spacing:0px;word-spacing:0px;fill:#000000;fill-opacity:1;stroke:none;stroke-width:0.264583;-inkscape-font-specification:'Lato, Bold';font-stretch:normal;font-variant:normal;font-variant-ligatures:normal;font-variant-caps:normal;font-variant-numeric:normal;font-variant-east-asian:normal"
       x="34.782913"
       y="117.15518"
       id="text1446-2"><tspan
         sodipodi:role="line"
         id="tspan1444-2"
         style="stroke-width:0.264583;-inkscape-font-specification:'Lato, Bold';font-family:Lato;font-weight:bold;font-style:normal;font-stretch:normal;font-variant:normal;font-size:3.88055993px;font-variant-ligatures:normal;font-variant-caps:normal;font-variant-numeric:normal;font-variant-east-asian:normal"
         x="34.782913"
         y="117.15518">Data correction</tspan></text>
    <text
       xml:space="preserve"
       style="font-style:normal;font-weight:bold;font-size:3.88055993px;line-height:1.25;font-family:Lato;letter-spacing:0px;word-spacing:0px;white-space:pre;inline-size:0;fill:#000000;fill-opacity:1;stroke:none;stroke-width:0.264583;-inkscape-font-specification:'Lato, Bold';font-stretch:normal;font-variant:normal;font-variant-ligatures:normal;font-variant-caps:normal;font-variant-numeric:normal;font-variant-east-asian:normal"
       x="5.8854208"
       y="76.724625"
       id="text1446-1"
       transform="translate(29.022554,15.381193)"><tspan
         id="tspan1444-0"
         style="stroke-width:0.264583;-inkscape-font-specification:'Lato, Bold';font-family:Lato;font-weight:bold;font-style:normal;font-stretch:normal;font-variant:normal;font-size:3.88055993px;font-variant-ligatures:normal;font-variant-caps:normal;font-variant-numeric:normal;font-variant-east-asian:normal"
         x="5.8854208"
         y="76.724625">SWMM Export</tspan></text>
    <text
       xml:space="preserve"
       style="font-style:normal;font-weight:bold;font-size:3.88055993px;line-height:1.25;font-family:Lato;letter-spacing:0px;word-spacing:0px;white-space:pre;inline-size:0;fill:#000000;fill-opacity:1;stroke:none;stroke-width:0.264583;-inkscape-font-specification:'Lato, Bold';font-stretch:normal;font-variant:normal;font-variant-ligatures:normal;font-variant-caps:normal;font-variant-numeric:normal;font-variant-east-asian:normal"
       x="5.8854208"
       y="76.724625"
       id="text1446-1-9"
       transform="translate(29.022554,64.513244)"><tspan
         id="tspan1444-0-3"
         style="stroke-width:0.264583;-inkscape-font-specification:'Lato, Bold';font-family:Lato;font-weight:bold;font-style:normal;font-stretch:normal;font-variant:normal;font-size:3.88055993px;font-variant-ligatures:normal;font-variant-caps:normal;font-variant-numeric:normal;font-variant-east-asian:normal"
         x="5.8854208"
         y="76.724625">SWMM simulation</tspan></text>
    <text
       xml:space="preserve"
       style="font-style:normal;font-weight:bold;font-size:3.88055993px;line-height:1.25;font-family:Lato;letter-spacing:0px;word-spacing:0px;fill:#000000;fill-opacity:1;stroke:none;stroke-width:0.264583;-inkscape-font-specification:'Lato, Bold';font-stretch:normal;font-variant:normal;font-variant-ligatures:normal;font-variant-caps:normal;font-variant-numeric:normal;font-variant-east-asian:normal"
       x="34.782913"
       y="164.44301"
       id="text10853"><tspan
         sodipodi:role="line"
         id="tspan10851"
         style="stroke-width:0.264583;-inkscape-font-specification:'Lato, Bold';font-family:Lato;font-weight:bold;font-style:normal;font-stretch:normal;font-variant:normal;font-size:3.88055993px;font-variant-ligatures:normal;font-variant-caps:normal;font-variant-numeric:normal;font-variant-east-asian:normal"
         x="34.782913"
         y="164.44301">Import of results</tspan></text>
    <text
       xml:space="preserve"
       style="font-style:normal;font-weight:bold;font-size:3.88055993px;line-height:1.25;font-family:Lato;letter-spacing:0px;word-spacing:0px;fill:#000000;fill-opacity:1;stroke:none;stroke-width:0.264583;-inkscape-font-specification:'Lato, Bold';font-stretch:normal;font-variant:normal;font-variant-ligatures:normal;font-variant-caps:normal;font-variant-numeric:normal;font-variant-east-asian:normal"
       x="34.782913"
       y="188.45891"
       id="text13817"><tspan
         sodipodi:role="line"
         id="tspan13815"
         style="stroke-width:0.264583;-inkscape-font-specification:'Lato, Bold';font-family:Lato;font-weight:bold;font-style:normal;font-stretch:normal;font-variant:normal;font-size:3.88055993px;font-variant-ligatures:normal;font-variant-caps:normal;font-variant-numeric:normal;font-variant-east-asian:normal"
         x="34.782913"
         y="188.45891">Mapping</tspan></text>
    <rect
       style="fill:none;stroke:#ebe0eb;stroke-width:0.642578;stroke-linecap:round;stroke-linejoin:round;stroke-miterlimit:4;stroke-dasharray:none;stroke-opacity:1"
       id="rect14177-2"
       width="238.05272"
       height="24.357422"
       x="30.770672"
       y="84.583954" />
    <rect
       style="fill:none;stroke:#ebe0eb;stroke-width:0.642633;stroke-linecap:round;stroke-linejoin:round;stroke-miterlimit:4;stroke-dasharray:none;stroke-opacity:1"
       id="rect14177-2-1-3"
       width="238.09396"
       height="24.357367"
       x="30.770699"
       y="133.17496" />
    <rect
       style="fill:none;stroke:#ebe0eb;stroke-width:0.642633;stroke-linecap:round;stroke-linejoin:round;stroke-miterlimit:4;stroke-dasharray:none;stroke-opacity:1"
       id="rect14177-2-1-3-2-9"
       width="238.09396"
       height="24.357367"
       x="30.770699"
       y="181.76584" />
    <text
       xml:space="preserve"
       style="font-style:normal;font-weight:normal;font-size:3.88055993px;line-height:1.25;font-family:Lato;letter-spacing:0px;word-spacing:0px;fill:#000000;fill-opacity:1;stroke:none;stroke-width:0.264583;-inkscape-font-specification:'Lato, Normal';font-stretch:normal;font-variant:normal;font-variant-ligatures:normal;font-variant-caps:normal;font-variant-numeric:normal;font-variant-east-asian:normal"
       x="76.667686"
       y="67.973892"
       id="text15207"><tspan
         sodipodi:role="line"
         style="stroke-width:0.264583;-inkscape-font-specification:'Lato, Normal';font-family:Lato;font-weight:normal;font-style:normal;font-stretch:normal;font-variant:normal;font-size:3.88055993px;font-variant-ligatures:normal;font-variant-caps:normal;font-variant-numeric:normal;font-variant-east-asian:normal"
         x="76.667686"
         y="67.973892"
         id="tspan26882">- Check wastewater structures connexions</tspan><tspan
         sodipodi:role="line"
         style="stroke-width:0.264583;-inkscape-font-specification:'Lato, Normal';font-family:Lato;font-weight:normal;font-style:normal;font-stretch:normal;font-variant:normal;font-size:3.88055993px;font-variant-ligatures:normal;font-variant-caps:normal;font-variant-numeric:normal;font-variant-east-asian:normal"
         x="76.667686"
         y="72.824593"
         id="tspan124832">- Set reach roughness</tspan><tspan
         sodipodi:role="line"
         style="stroke-width:0.264583;-inkscape-font-specification:'Lato, Normal';font-family:Lato;font-weight:normal;font-style:normal;font-stretch:normal;font-variant:normal;font-size:3.88055993px;font-variant-ligatures:normal;font-variant-caps:normal;font-variant-numeric:normal;font-variant-east-asian:normal"
         x="76.667686"
         y="77.675293"
         id="tspan133822">- Check catchment area connexions</tspan><tspan
         sodipodi:role="line"
         style="stroke-width:0.264583;-inkscape-font-specification:'Lato, Normal';font-family:Lato;font-weight:normal;font-style:normal;font-stretch:normal;font-variant:normal;font-size:3.88055993px;font-variant-ligatures:normal;font-variant-caps:normal;font-variant-numeric:normal;font-variant-east-asian:normal"
         x="76.667686"
         y="82.525993"
         id="tspan134626">- ...</tspan></text>
    <text
       xml:space="preserve"
       style="font-style:normal;font-weight:normal;font-size:3.88055993px;line-height:1.25;font-family:Lato;letter-spacing:0px;word-spacing:0px;fill:#000000;fill-opacity:1;stroke:none;stroke-width:0.264583;-inkscape-font-specification:'Lato, Normal';font-stretch:normal;font-variant:normal;font-variant-ligatures:normal;font-variant-caps:normal;font-variant-numeric:normal;font-variant-east-asian:normal"
       x="76.667686"
       y="117.15518"
       id="text15207-1"><tspan
         sodipodi:role="line"
         style="stroke-width:0.264583;-inkscape-font-specification:'Lato, Normal';font-family:Lato;font-weight:normal;font-style:normal;font-stretch:normal;font-variant:normal;font-size:3.88055993px;font-variant-ligatures:normal;font-variant-caps:normal;font-variant-numeric:normal;font-variant-east-asian:normal"
         x="76.667686"
         y="117.15518"
         id="tspan26882-8">- Check wastewater structures connexions</tspan><tspan
         sodipodi:role="line"
         style="stroke-width:0.264583;-inkscape-font-specification:'Lato, Normal';font-family:Lato;font-weight:normal;font-style:normal;font-stretch:normal;font-variant:normal;font-size:3.88055993px;font-variant-ligatures:normal;font-variant-caps:normal;font-variant-numeric:normal;font-variant-east-asian:normal"
         x="76.667686"
         y="122.00588"
         id="tspan149154">- Check missing attributes</tspan></text>
    <text
       xml:space="preserve"
       style="font-style:normal;font-weight:normal;font-size:3.88055993px;line-height:1.25;font-family:Lato;letter-spacing:0px;word-spacing:0px;fill:#000000;fill-opacity:1;stroke:none;stroke-width:0.264583;-inkscape-font-specification:'Lato, Normal';font-stretch:normal;font-variant:normal;font-variant-ligatures:normal;font-variant-caps:normal;font-variant-numeric:normal;font-variant-east-asian:normal"
       x="76.667686"
       y="141.23795"
       id="text15207-1-5"><tspan
         sodipodi:role="line"
         style="stroke-width:0.264583;-inkscape-font-specification:'Lato, Normal';font-family:Lato;font-weight:normal;font-style:normal;font-stretch:normal;font-variant:normal;font-size:3.88055993px;font-variant-ligatures:normal;font-variant-caps:normal;font-variant-numeric:normal;font-variant-east-asian:normal"
         x="76.667686"
         y="141.23795"
         id="tspan51388">- Check / update climatic default parameters</tspan><tspan
         sodipodi:role="line"
         style="stroke-width:0.264583;-inkscape-font-specification:'Lato, Normal';font-family:Lato;font-weight:normal;font-style:normal;font-stretch:normal;font-variant:normal;font-size:3.88055993px;font-variant-ligatures:normal;font-variant-caps:normal;font-variant-numeric:normal;font-variant-east-asian:normal"
         x="76.667686"
         y="146.08864"
         id="tspan159158">- Check / update hydraulic default parameters</tspan><tspan
         sodipodi:role="line"
         style="stroke-width:0.264583;-inkscape-font-specification:'Lato, Normal';font-family:Lato;font-weight:normal;font-style:normal;font-stretch:normal;font-variant:normal;font-size:3.88055993px;font-variant-ligatures:normal;font-variant-caps:normal;font-variant-numeric:normal;font-variant-east-asian:normal"
         x="76.667686"
         y="150.93935"
         id="tspan189732">- Run the simulation</tspan></text>
    <text
       xml:space="preserve"
       style="font-style:normal;font-weight:normal;font-size:3.88055993px;line-height:1.25;font-family:Lato;letter-spacing:0px;word-spacing:0px;fill:#000000;fill-opacity:1;stroke:none;stroke-width:0.264583;-inkscape-font-specification:'Lato, Normal';font-stretch:normal;font-variant:normal;font-variant-ligatures:normal;font-variant-caps:normal;font-variant-numeric:normal;font-variant-east-asian:normal"
       x="76.667686"
       y="164.44301"
       id="text15207-1-5-0"><tspan
         sodipodi:role="line"
         style="stroke-width:0.264583;-inkscape-font-specification:'Lato, Normal';font-family:Lato;font-weight:normal;font-style:normal;font-stretch:normal;font-variant:normal;font-size:3.88055993px;font-variant-ligatures:normal;font-variant-caps:normal;font-variant-numeric:normal;font-variant-east-asian:normal"
         x="76.667686"
         y="164.44301"
         id="tspan53243">- Import results in QGIS </tspan><tspan
         sodipodi:role="line"
         style="stroke-width:0.264583;-inkscape-font-specification:'Lato, Normal';font-family:Lato;font-weight:normal;font-style:normal;font-stretch:normal;font-variant:normal;font-size:3.88055993px;font-variant-ligatures:normal;font-variant-caps:normal;font-variant-numeric:normal;font-variant-east-asian:normal"
         x="76.667686"
         y="169.2937"
         id="tspan169584">- Import results in QGEP</tspan></text>
    <text
       xml:space="preserve"
       style="font-style:normal;font-weight:normal;font-size:3.88055993px;line-height:1.25;font-family:Lato;letter-spacing:0px;word-spacing:0px;fill:#000000;fill-opacity:1;stroke:none;stroke-width:0.264583;-inkscape-font-specification:'Lato, Normal';font-stretch:normal;font-variant:normal;font-variant-ligatures:normal;font-variant-caps:normal;font-variant-numeric:normal;font-variant-east-asian:normal"
       x="76.667686"
       y="188.45891"
       id="text59606"><tspan
         sodipodi:role="line"
         id="tspan59604"
         style="stroke-width:0.264583;-inkscape-font-specification:'Lato, Normal';font-family:Lato;font-weight:normal;font-style:normal;font-stretch:normal;font-variant:normal;font-size:3.88055993px;font-variant-ligatures:normal;font-variant-caps:normal;font-variant-numeric:normal;font-variant-east-asian:normal"
         x="76.667686"
         y="188.45891">- Map hydraulic results</tspan></text>
    <text
       xml:space="preserve"
       style="font-style:normal;font-weight:normal;font-size:3.88055993px;line-height:1.25;font-family:Lato;letter-spacing:0px;word-spacing:0px;fill:#000000;fill-opacity:1;stroke:none;stroke-width:0.264583;-inkscape-font-specification:'Lato, Normal';font-stretch:normal;font-variant:normal;font-variant-ligatures:normal;font-variant-caps:normal;font-variant-numeric:normal;font-variant-east-asian:normal"
       x="76.667686"
       y="92.174026"
       id="text15207-12"><tspan
         sodipodi:role="line"
         style="stroke-width:0.264583;-inkscape-font-specification:'Lato, Normal';font-family:Lato;font-weight:normal;font-style:normal;font-stretch:normal;font-variant:normal;font-size:3.88055993px;font-variant-ligatures:normal;font-variant-caps:normal;font-variant-numeric:normal;font-variant-east-asian:normal"
         x="76.667686"
         y="92.174026"
         id="tspan134626-5">- Generate an <tspan
   style="font-style:normal;font-variant:normal;font-weight:normal;font-stretch:normal;font-family:Lato;-inkscape-font-specification:'Lato, Normal';font-size:3.88055993px;font-variant-ligatures:normal;font-variant-caps:normal;font-variant-numeric:normal;font-variant-east-asian:normal"
   id="tspan137220">.inp</tspan> file</tspan></text>
    <path
       style="fill:none;stroke:#ebe0eb;stroke-width:1;stroke-linecap:butt;stroke-linejoin:miter;stroke-miterlimit:4;stroke-dasharray:none;stroke-opacity:1;marker-end:url(#Arrow1Mend)"
       d="M 30.063403,75.323691 H 20.813125 V 31.791162 H 133.39177"
       id="path197079"
       sodipodi:nodetypes="cccc" />
    <path
       style="fill:none;stroke:#ebe0eb;stroke-width:1;stroke-linecap:butt;stroke-linejoin:miter;stroke-miterlimit:4;stroke-dasharray:none;stroke-opacity:1;marker-end:url(#Arrow1Mend-0)"
       d="M 30.704821,121.22375 H 15.67917 l 0,-98.242021 h 117.78161"
       id="path197079-2"
       sodipodi:nodetypes="cccc" />
    <path
       style="fill:none;stroke:#ebe0eb;stroke-width:1;stroke-linecap:butt;stroke-linejoin:miter;stroke-miterlimit:4;stroke-dasharray:none;stroke-opacity:1;marker-end:url(#Arrow1Mend-0-6)"
       d="M 30.336344,169.78355 H 10.548193 V 15.449859 H 133.62146"
       id="path197079-2-1"
       sodipodi:nodetypes="cccc" />
    <path
       style="fill:none;stroke:#ebe0eb;stroke-width:1;stroke-linecap:butt;stroke-linejoin:miter;stroke-miterlimit:4;stroke-dasharray:none;stroke-opacity:1;marker-end:url(#Arrow1Mend-2)"
       d="M 168.07651,32.023073 H 282.10178 V 96.722264 H 271.6523"
       id="path197079-8"
       sodipodi:nodetypes="cccc" />
    <g
       id="g914"
       transform="matrix(0.66642983,0,0,0.66642983,133.77718,3.7205477)"
       style="stroke:#996699;stroke-opacity:1;fill:#996699;fill-opacity:1">
      <path
         d="M 52.354,8.51 C 51.196,4.22 42.577,0 27.5,0 12.423,0 3.803,4.22 2.646,8.51 2.562,8.657 2.5,8.818 2.5,9 V 9.5 21 21.5 22 33 33.5 34 46 c 0,0.162 0.043,0.315 0.117,0.451 C 3.798,51.346 14.364,55 27.5,55 40.606,55 51.155,51.361 52.375,46.484 52.455,46.341 52.5,46.176 52.5,46 V 34 33.5 33 22 21.5 21 9.5 9 c 0,-0.182 -0.062,-0.343 -0.146,-0.49 z m -1.933,25.475 c -0.028,0.121 -0.067,0.241 -0.116,0.363 -0.04,0.099 -0.089,0.198 -0.143,0.297 -0.067,0.123 -0.142,0.246 -0.231,0.369 -0.066,0.093 -0.141,0.185 -0.219,0.277 -0.111,0.131 -0.229,0.262 -0.363,0.392 -0.081,0.079 -0.17,0.157 -0.26,0.236 -0.164,0.143 -0.335,0.285 -0.526,0.426 -0.082,0.061 -0.17,0.12 -0.257,0.18 -0.226,0.156 -0.462,0.311 -0.721,0.463 -0.068,0.041 -0.141,0.08 -0.212,0.12 -0.298,0.168 -0.609,0.335 -0.945,0.497 -0.043,0.021 -0.088,0.041 -0.132,0.061 -0.375,0.177 -0.767,0.351 -1.186,0.519 -0.012,0.005 -0.024,0.009 -0.036,0.014 -2.271,0.907 -5.176,1.67 -8.561,2.17 -0.017,0.002 -0.034,0.004 -0.051,0.007 -0.658,0.097 -1.333,0.183 -2.026,0.259 -0.113,0.012 -0.232,0.02 -0.346,0.032 -0.605,0.063 -1.217,0.121 -1.847,0.167 -0.288,0.021 -0.59,0.031 -0.883,0.049 -0.474,0.028 -0.943,0.059 -1.429,0.076 C 29.137,40.984 28.327,41 27.5,41 26.673,41 25.863,40.984 25.068,40.956 24.582,40.939 24.113,40.907 23.639,40.88 23.346,40.863 23.044,40.852 22.756,40.831 22.126,40.785 21.514,40.727 20.909,40.664 20.795,40.652 20.676,40.644 20.563,40.632 19.87,40.556 19.195,40.469 18.537,40.373 18.52,40.371 18.503,40.369 18.486,40.366 15.101,39.866 12.196,39.103 9.925,38.196 9.913,38.192 9.901,38.187 9.889,38.182 9.47,38.014 9.077,37.84 8.703,37.663 8.66,37.642 8.614,37.622 8.571,37.602 8.235,37.44 7.924,37.274 7.626,37.105 7.556,37.065 7.482,37.026 7.414,36.985 7.155,36.833 6.919,36.678 6.693,36.522 6.607,36.462 6.518,36.403 6.436,36.342 6.245,36.201 6.074,36.059 5.91,35.916 5.821,35.838 5.731,35.76 5.65,35.68 5.516,35.55 5.398,35.42 5.287,35.288 5.209,35.196 5.134,35.104 5.068,35.011 4.98,34.888 4.905,34.765 4.837,34.642 4.783,34.543 4.735,34.444 4.694,34.345 4.645,34.224 4.606,34.103 4.578,33.982 4.541,33.823 4.5,33.661 4.5,33.5 4.5,33.387 4.513,33.274 4.531,33.162 4.556,33.011 4.542,32.86 4.5,32.717 v -7.424 c 0.028,0.026 0.063,0.051 0.092,0.077 0.218,0.192 0.44,0.383 0.69,0.567 C 9.049,28.786 16.582,31 27.5,31 c 10.872,0 18.386,-2.196 22.169,-5.028 0.302,-0.22 0.574,-0.447 0.83,-0.678 L 50.5,25.293 v 7.424 c -0.042,0.143 -0.056,0.294 -0.031,0.445 0.019,0.112 0.031,0.225 0.031,0.338 0,0.161 -0.041,0.323 -0.079,0.485 z M 50.5,13.293 v 7.424 c -0.042,0.143 -0.056,0.294 -0.031,0.445 0.019,0.112 0.031,0.225 0.031,0.338 0,0.161 -0.041,0.323 -0.079,0.485 -0.028,0.121 -0.067,0.241 -0.116,0.363 -0.04,0.099 -0.089,0.198 -0.143,0.297 -0.067,0.123 -0.142,0.246 -0.231,0.369 -0.066,0.093 -0.141,0.185 -0.219,0.277 -0.111,0.131 -0.229,0.262 -0.363,0.392 -0.081,0.079 -0.17,0.157 -0.26,0.236 -0.164,0.143 -0.335,0.285 -0.526,0.426 -0.082,0.061 -0.17,0.12 -0.257,0.18 -0.226,0.156 -0.462,0.311 -0.721,0.463 -0.068,0.041 -0.141,0.08 -0.212,0.12 -0.298,0.168 -0.609,0.335 -0.945,0.497 -0.043,0.021 -0.088,0.041 -0.132,0.061 -0.375,0.177 -0.767,0.351 -1.186,0.519 -0.012,0.005 -0.024,0.009 -0.036,0.014 -2.271,0.907 -5.176,1.67 -8.561,2.17 -0.017,0.002 -0.034,0.004 -0.051,0.007 -0.658,0.097 -1.333,0.183 -2.026,0.259 -0.113,0.012 -0.232,0.02 -0.346,0.032 -0.605,0.063 -1.217,0.121 -1.847,0.167 -0.288,0.021 -0.59,0.031 -0.883,0.049 -0.474,0.028 -0.943,0.059 -1.429,0.076 C 29.137,28.984 28.327,29 27.5,29 26.673,29 25.863,28.984 25.068,28.956 24.582,28.939 24.113,28.907 23.639,28.88 23.346,28.863 23.044,28.852 22.756,28.831 22.126,28.785 21.514,28.727 20.909,28.664 20.795,28.652 20.676,28.644 20.563,28.632 19.87,28.556 19.195,28.469 18.537,28.373 18.52,28.371 18.503,28.369 18.486,28.366 15.101,27.866 12.196,27.103 9.925,26.196 9.913,26.192 9.901,26.187 9.889,26.182 9.47,26.014 9.077,25.84 8.703,25.663 8.66,25.642 8.614,25.622 8.571,25.602 8.235,25.44 7.924,25.274 7.626,25.105 7.556,25.065 7.482,25.026 7.414,24.985 7.155,24.833 6.919,24.678 6.693,24.522 6.607,24.462 6.518,24.403 6.436,24.342 6.245,24.201 6.074,24.059 5.91,23.916 5.821,23.838 5.731,23.76 5.65,23.68 5.516,23.55 5.398,23.42 5.287,23.288 5.209,23.196 5.134,23.104 5.068,23.011 4.98,22.888 4.905,22.765 4.837,22.642 4.783,22.543 4.735,22.444 4.694,22.345 4.645,22.224 4.606,22.103 4.578,21.982 4.541,21.823 4.5,21.661 4.5,21.5 4.5,21.387 4.513,21.274 4.531,21.162 4.556,21.011 4.542,20.86 4.5,20.717 v -7.424 c 0.12,0.109 0.257,0.216 0.387,0.324 0.072,0.06 0.139,0.12 0.215,0.18 0.3,0.236 0.624,0.469 0.975,0.696 0.073,0.047 0.155,0.093 0.231,0.14 0.294,0.183 0.605,0.362 0.932,0.538 0.121,0.065 0.242,0.129 0.367,0.193 0.365,0.186 0.748,0.367 1.151,0.542 0.066,0.029 0.126,0.059 0.193,0.087 0.469,0.199 0.967,0.389 1.485,0.573 0.143,0.051 0.293,0.099 0.44,0.149 0.412,0.139 0.838,0.272 1.279,0.401 0.159,0.046 0.315,0.094 0.478,0.138 0.585,0.162 1.189,0.316 1.823,0.458 0.087,0.02 0.181,0.036 0.269,0.055 0.559,0.122 1.139,0.235 1.735,0.341 0.202,0.036 0.407,0.07 0.613,0.104 0.567,0.093 1.151,0.178 1.75,0.256 0.154,0.02 0.301,0.043 0.457,0.062 0.744,0.09 1.514,0.167 2.305,0.233 0.195,0.016 0.398,0.028 0.596,0.042 0.633,0.046 1.28,0.084 1.942,0.114 0.241,0.011 0.481,0.022 0.727,0.031 0.862,0.029 1.74,0.05 2.65,0.05 0.91,0 1.788,-0.021 2.65,-0.05 0.245,-0.009 0.485,-0.02 0.727,-0.031 0.662,-0.03 1.309,-0.068 1.942,-0.114 0.198,-0.015 0.4,-0.026 0.596,-0.042 0.791,-0.065 1.561,-0.143 2.305,-0.233 0.156,-0.019 0.303,-0.042 0.457,-0.062 0.599,-0.078 1.182,-0.163 1.75,-0.256 0.206,-0.034 0.411,-0.068 0.613,-0.104 0.596,-0.106 1.176,-0.219 1.735,-0.341 0.088,-0.019 0.182,-0.036 0.269,-0.055 0.634,-0.142 1.238,-0.297 1.823,-0.458 0.163,-0.045 0.319,-0.092 0.478,-0.138 0.441,-0.129 0.867,-0.262 1.279,-0.401 0.147,-0.05 0.297,-0.098 0.44,-0.149 0.518,-0.184 1.017,-0.374 1.485,-0.573 0.067,-0.028 0.127,-0.058 0.193,-0.087 0.403,-0.176 0.786,-0.356 1.151,-0.542 0.125,-0.064 0.247,-0.128 0.367,-0.193 0.327,-0.175 0.638,-0.354 0.932,-0.538 0.076,-0.047 0.158,-0.093 0.231,-0.14 0.351,-0.227 0.675,-0.459 0.975,-0.696 0.075,-0.06 0.142,-0.12 0.215,-0.18 0.13,-0.108 0.267,-0.215 0.387,-0.324 z M 27.5,2 c 13.555,0 23,3.952 23,7.5 0,3.548 -9.445,7.5 -23,7.5 C 13.945,17 4.5,13.048 4.5,9.5 4.5,5.952 13.945,2 27.5,2 Z m 23,43.703 c -0.014,0.044 -0.024,0.089 -0.032,0.135 C 49.901,49.297 40.536,53 27.5,53 14.464,53 5.099,49.297 4.532,45.838 4.524,45.793 4.513,45.749 4.5,45.707 v -8.414 c 0.028,0.026 0.063,0.051 0.092,0.077 0.218,0.192 0.44,0.383 0.69,0.567 C 9.049,40.786 16.582,43 27.5,43 c 10.872,0 18.386,-2.196 22.169,-5.028 0.302,-0.22 0.574,-0.447 0.83,-0.678 L 50.5,37.293 Z"
         id="path861"
         style="stroke:#996699;stroke-opacity:1;fill:#996699;fill-opacity:1" />
      <g
         id="g863"
         style="stroke:#996699;stroke-opacity:1;fill:#996699;fill-opacity:1">
</g>
      <g
         id="g865"
         style="stroke:#996699;stroke-opacity:1;fill:#996699;fill-opacity:1">
</g>
      <g
         id="g867"
         style="stroke:#996699;stroke-opacity:1;fill:#996699;fill-opacity:1">
</g>
      <g
         id="g869"
         style="stroke:#996699;stroke-opacity:1;fill:#996699;fill-opacity:1">
</g>
      <g
         id="g871"
         style="stroke:#996699;stroke-opacity:1;fill:#996699;fill-opacity:1">
</g>
      <g
         id="g873"
         style="stroke:#996699;stroke-opacity:1;fill:#996699;fill-opacity:1">
</g>
      <g
         id="g875"
         style="stroke:#996699;stroke-opacity:1;fill:#996699;fill-opacity:1">
</g>
      <g
         id="g877"
         style="stroke:#996699;stroke-opacity:1;fill:#996699;fill-opacity:1">
</g>
      <g
         id="g879"
         style="stroke:#996699;stroke-opacity:1;fill:#996699;fill-opacity:1">
</g>
      <g
         id="g881"
         style="stroke:#996699;stroke-opacity:1;fill:#996699;fill-opacity:1">
</g>
      <g
         id="g883"
         style="stroke:#996699;stroke-opacity:1;fill:#996699;fill-opacity:1">
</g>
      <g
         id="g885"
         style="stroke:#996699;stroke-opacity:1;fill:#996699;fill-opacity:1">
</g>
      <g
         id="g887"
         style="stroke:#996699;stroke-opacity:1;fill:#996699;fill-opacity:1">
</g>
      <g
         id="g889"
         style="stroke:#996699;stroke-opacity:1;fill:#996699;fill-opacity:1">
</g>
      <g
         id="g891"
         style="stroke:#996699;stroke-opacity:1;fill:#996699;fill-opacity:1">
</g>
    </g>
    <text
       xml:space="preserve"
       style="font-style:normal;font-weight:normal;font-size:3.88055993px;line-height:1.25;font-family:Lato;letter-spacing:0px;word-spacing:0px;fill:#000000;fill-opacity:1;stroke:none;stroke-width:0.264583;-inkscape-font-specification:'Lato, Normal';font-stretch:normal;font-variant:normal;font-variant-ligatures:normal;font-variant-caps:normal;font-variant-numeric:normal;font-variant-east-asian:normal"
       x="182.71396"
       y="67.973892"
       id="text15207-6"><tspan
         sodipodi:role="line"
         style="stroke-width:0.264583;-inkscape-font-specification:'Lato, Normal';font-family:Lato;font-weight:normal;font-style:normal;font-stretch:normal;font-variant:normal;font-size:3.88055993px;font-variant-ligatures:normal;font-variant-caps:normal;font-variant-numeric:normal;font-variant-east-asian:normal"
         x="182.71396"
         y="67.973892"
         id="tspan26882-6">SWMM set default coefficient of friction</tspan></text>
    <text
       xml:space="preserve"
       style="font-style:normal;font-weight:bold;font-size:3.88056px;line-height:1.25;font-family:Lato;letter-spacing:0px;word-spacing:0px;fill:#ffffff;fill-opacity:1;stroke:none;stroke-width:0.264583;-inkscape-font-specification:'Lato, Bold';font-stretch:normal;font-variant:normal;font-variant-ligatures:normal;font-variant-caps:normal;font-variant-numeric:normal;font-variant-east-asian:normal"
       x="199.8271"
       y="53.724697"
       id="text15207-6-3"><tspan
         sodipodi:role="line"
         style="font-style:normal;font-variant:normal;font-weight:bold;font-stretch:normal;font-family:Lato;-inkscape-font-specification:'Lato, Bold';fill:#000000;stroke-width:0.264583;font-size:3.88055993px;font-variant-ligatures:normal;font-variant-caps:normal;font-variant-numeric:normal;font-variant-east-asian:normal"
         x="199.8271"
         y="53.724697"
         id="tspan26882-6-0">QGEP-SWMM functions</tspan></text>
    <text
       xml:space="preserve"
       style="font-style:normal;font-weight:normal;font-size:3.88055993px;line-height:1.25;font-family:Lato;letter-spacing:0px;word-spacing:0px;white-space:pre;inline-size:65.2525;fill:#000000;fill-opacity:1;stroke:none;stroke-width:0.264583;-inkscape-font-specification:'Lato, Normal';font-stretch:normal;font-variant:normal;font-variant-ligatures:normal;font-variant-caps:normal;font-variant-numeric:normal;font-variant-east-asian:normal"
       x="146.77673"
       y="95.931671"
       id="text15207-6-1-2"
       inkscape:transform-center-x="-2.9733037"
       inkscape:transform-center-y="2.9733037"
       transform="translate(36.00342,-3.8258522)"><tspan
         x="146.77673"
         y="95.931671"
         id="tspan222736">SWMM Create Input:
</tspan><tspan
         x="146.77673"
         y="100.78238"
         id="tspan222738">- Select subnetwork
</tspan><tspan
         x="146.77673"
         y="105.63308"
         id="tspan222740">- Select state (current, planned)</tspan></text>
    <text
       xml:space="preserve"
       style="font-style:normal;font-weight:normal;font-size:3.88055993px;line-height:1.25;font-family:Lato;letter-spacing:0px;word-spacing:0px;fill:#000000;fill-opacity:1;stroke:none;stroke-width:0.264583;-inkscape-font-specification:'Lato, Normal';font-stretch:normal;font-variant:normal;font-variant-ligatures:normal;font-variant-caps:normal;font-variant-numeric:normal;font-variant-east-asian:normal"
       x="182.71396"
       y="164.44301"
       id="text172308"><tspan
         sodipodi:role="line"
         id="tspan172306"
         style="stroke-width:0.264583;-inkscape-font-specification:'Lato, Normal';font-family:Lato;font-weight:normal;font-style:normal;font-stretch:normal;font-variant:normal;font-size:3.88055993px;font-variant-ligatures:normal;font-variant-caps:normal;font-variant-numeric:normal;font-variant-east-asian:normal"
         x="182.71396"
         y="164.44301">SWMM Extract Results</tspan><tspan
         sodipodi:role="line"
         style="stroke-width:0.264583;-inkscape-font-specification:'Lato, Normal';font-family:Lato;font-weight:normal;font-style:normal;font-stretch:normal;font-variant:normal;font-size:3.88055993px;font-variant-ligatures:normal;font-variant-caps:normal;font-variant-numeric:normal;font-variant-east-asian:normal"
         x="182.71396"
         y="169.2937"
         id="tspan172310">SWMM Import Results</tspan></text>
    <text
       xml:space="preserve"
       style="font-style:normal;font-weight:normal;font-size:3.88055993px;line-height:1.25;font-family:Lato;letter-spacing:0px;word-spacing:0px;fill:#000000;fill-opacity:1;stroke:none;stroke-width:0.264583;-inkscape-font-specification:'Lato, Normal';font-stretch:normal;font-variant:normal;font-variant-ligatures:normal;font-variant-caps:normal;font-variant-numeric:normal;font-variant-east-asian:normal"
       x="182.71396"
       y="141.16974"
       id="text172308-8"><tspan
         sodipodi:role="line"
         style="stroke-width:0.264583;-inkscape-font-specification:'Lato, Normal';font-family:Lato;font-weight:normal;font-style:normal;font-stretch:normal;font-variant:normal;font-size:3.88055993px;font-variant-ligatures:normal;font-variant-caps:normal;font-variant-numeric:normal;font-variant-east-asian:normal"
         x="182.71396"
         y="141.16974"
         id="tspan172310-5">SWMM Execute</tspan></text>
    <rect
       style="fill:none;stroke:#996699;stroke-width:1.04249;stroke-linecap:round;stroke-linejoin:round;stroke-miterlimit:4;stroke-dasharray:none;fill-opacity:1;opacity:1;stroke-opacity:1"
       id="rect14177-3"
       width="94.123558"
       height="162.14186"
       x="174.91559"
       y="44.038853" />
  </g>
</svg>
